<svg id="visual" viewBox="0 0 540 960" width="540" height="960" xmlns="http://www.w3.org/2000/svg" xmlns:xlink="http://www.w3.org/1999/xlink" version="1.1"><rect x="0" y="0" width="540" height="960" fill="#fff"></rect><path d="M0 554L11.3 549.5C22.7 545 45.3 536 67.8 536.5C90.3 537 112.7 547 135.2 551C157.7 555 180.3 553 202.8 555C225.3 557 247.7 563 270.2 574.5C292.7 586 315.3 603 337.8 600C360.3 597 382.7 574 405.2 571.5C427.7 569 450.3 587 472.8 590.7C495.3 594.3 517.7 583.7 528.8 578.3L540 573L540 961L528.8 961C517.7 961 495.3 961 472.8 961C450.3 961 427.7 961 405.2 961C382.7 961 360.3 961 337.8 961C315.3 961 292.7 961 270.2 961C247.7 961 225.3 961 202.8 961C180.3 961 157.7 961 135.2 961C112.7 961 90.3 961 67.8 961C45.3 961 22.7 961 11.3 961L0 961Z" fill="#51d753"></path><path d="M0 621L11.3 609.8C22.7 598.7 45.3 576.3 67.8 575.3C90.3 574.3 112.7 594.7 135.2 607.3C157.7 620 180.3 625 202.8 628.5C225.3 632 247.7 634 270.2 626C292.7 618 315.3 600 337.8 587.3C360.3 574.7 382.7 567.3 405.2 578.5C427.7 589.7 450.3 619.3 472.8 639.7C495.3 660 517.7 671 528.8 676.5L540 682L540 961L528.8 961C517.7 961 495.3 961 472.8 961C450.3 961 427.7 961 405.2 961C382.7 961 360.3 961 337.8 961C315.3 961 292.7 961 270.2 961C247.7 961 225.3 961 202.8 961C180.3 961 157.7 961 135.2 961C112.7 961 90.3 961 67.8 961C45.3 961 22.7 961 11.3 961L0 961Z" fill="#49ce4b"></path><path d="M0 657L11.3 668.5C22.7 680 45.3 703 67.8 707.8C90.3 712.7 112.7 699.3 135.2 692.8C157.7 686.3 180.3 686.7 202.8 682.2C225.3 677.7 247.7 668.3 270.2 659.8C292.7 651.3 315.3 643.7 337.8 642.3C360.3 641 382.7 646 405.2 645C427.7 644 450.3 637 472.8 647.5C495.3 658 517.7 686 528.8 700L540 714L540 961L528.8 961C517.7 961 495.3 961 472.8 961C450.3 961 427.7 961 405.2 961C382.7 961 360.3 961 337.8 961C315.3 961 292.7 961 270.2 961C247.7 961 225.3 961 202.8 961C180.3 961 157.7 961 135.2 961C112.7 961 90.3 961 67.8 961C45.3 961 22.7 961 11.3 961L0 961Z" fill="#41c442"></path><path d="M0 782L11.3 776.3C22.7 770.7 45.3 759.3 67.8 743.3C90.3 727.3 112.7 706.7 135.2 692.5C157.7 678.3 180.3 670.7 202.8 682.8C225.3 695 247.7 727 270.2 735.2C292.7 743.3 315.3 727.7 337.8 725.5C360.3 723.3 382.7 734.7 405.2 739C427.7 743.3 450.3 740.7 472.8 734.8C495.3 729 517.7 720 528.8 715.5L540 711L540 961L528.8 961C517.7 961 495.3 961 472.8 961C450.3 961 427.7 961 405.2 961C382.7 961 360.3 961 337.8 961C315.3 961 292.7 961 270.2 961C247.7 961 225.3 961 202.8 961C180.3 961 157.7 961 135.2 961C112.7 961 90.3 961 67.8 961C45.3 961 22.7 961 11.3 961L0 961Z" fill="#39bb3a"></path><path d="M0 763L11.3 766.8C22.7 770.7 45.3 778.3 67.8 776.5C90.3 774.7 112.7 763.3 135.2 759.5C157.7 755.7 180.3 759.3 202.8 767.3C225.3 775.3 247.7 787.7 270.2 783C292.7 778.3 315.3 756.7 337.8 744.7C360.3 732.7 382.7 730.3 405.2 741C427.7 751.7 450.3 775.3 472.8 780.2C495.3 785 517.7 771 528.8 764L540 757L540 961L528.8 961C517.7 961 495.3 961 472.8 961C450.3 961 427.7 961 405.2 961C382.7 961 360.3 961 337.8 961C315.3 961 292.7 961 270.2 961C247.7 961 225.3 961 202.8 961C180.3 961 157.7 961 135.2 961C112.7 961 90.3 961 67.8 961C45.3 961 22.7 961 11.3 961L0 961Z" fill="#30b231"></path><path d="M0 823L11.3 827.3C22.7 831.7 45.3 840.3 67.8 835.7C90.3 831 112.7 813 135.2 817C157.7 821 180.3 847 202.8 860.2C225.3 873.3 247.7 873.7 270.2 863.8C292.7 854 315.3 834 337.8 830.5C360.3 827 382.7 840 405.2 839.7C427.7 839.3 450.3 825.7 472.8 822.8C495.3 820 517.7 828 528.8 832L540 836L540 961L528.8 961C517.7 961 495.3 961 472.8 961C450.3 961 427.7 961 405.2 961C382.7 961 360.3 961 337.8 961C315.3 961 292.7 961 270.2 961C247.7 961 225.3 961 202.8 961C180.3 961 157.7 961 135.2 961C112.7 961 90.3 961 67.8 961C45.3 961 22.7 961 11.3 961L0 961Z" fill="#27a828"></path><path d="M0 902L11.3 897.7C22.7 893.3 45.3 884.7 67.8 880.8C90.3 877 112.7 878 135.2 884.7C157.7 891.3 180.3 903.7 202.8 908.3C225.3 913 247.7 910 270.2 901.2C292.7 892.3 315.3 877.7 337.8 872C360.3 866.3 382.7 869.7 405.2 879C427.7 888.3 450.3 903.7 472.8 901.5C495.3 899.3 517.7 879.7 528.8 869.8L540 860L540 961L528.8 961C517.7 961 495.3 961 472.8 961C450.3 961 427.7 961 405.2 961C382.7 961 360.3 961 337.8 961C315.3 961 292.7 961 270.2 961C247.7 961 225.3 961 202.8 961C180.3 961 157.7 961 135.2 961C112.7 961 90.3 961 67.8 961C45.3 961 22.7 961 11.3 961L0 961Z" fill="#1d9f1f"></path></svg>