<svg id="visual" viewBox="0 0 1920 1080" width="1920" height="1080" xmlns="http://www.w3.org/2000/svg" xmlns:xlink="http://www.w3.org/1999/xlink" version="1.1"><rect x="0" y="0" width="1920" height="1080" fill="#ffffff"></rect><path d="M1302 1080L1283 1054.3C1264 1028.7 1226 977.3 1255 925.8C1284 874.3 1380 822.7 1424.2 771.2C1468.3 719.7 1460.7 668.3 1412 617C1363.3 565.7 1273.7 514.3 1253.7 463C1233.7 411.7 1283.3 360.3 1327.8 308.8C1372.3 257.3 1411.7 205.7 1413.3 154.2C1415 102.7 1379 51.3 1361 25.7L1343 0L1920 0L1920 25.7C1920 51.3 1920 102.7 1920 154.2C1920 205.7 1920 257.3 1920 308.8C1920 360.3 1920 411.7 1920 463C1920 514.3 1920 565.7 1920 617C1920 668.3 1920 719.7 1920 771.2C1920 822.7 1920 874.3 1920 925.8C1920 977.3 1920 1028.7 1920 1054.3L1920 1080Z" fill="#b1ffb7"></path><path d="M1204 1080L1203.8 1054.3C1203.7 1028.7 1203.3 977.3 1233.2 925.8C1263 874.3 1323 822.7 1371.5 771.2C1420 719.7 1457 668.3 1471.7 617C1486.3 565.7 1478.7 514.3 1446.8 463C1415 411.7 1359 360.3 1312 308.8C1265 257.3 1227 205.7 1243.5 154.2C1260 102.7 1331 51.3 1366.5 25.7L1402 0L1920 0L1920 25.7C1920 51.3 1920 102.7 1920 154.2C1920 205.7 1920 257.3 1920 308.8C1920 360.3 1920 411.7 1920 463C1920 514.3 1920 565.7 1920 617C1920 668.3 1920 719.7 1920 771.2C1920 822.7 1920 874.3 1920 925.8C1920 977.3 1920 1028.7 1920 1054.3L1920 1080Z" fill="#94e998"></path><path d="M1551 1080L1556.3 1054.3C1561.7 1028.7 1572.3 977.3 1567.2 925.8C1562 874.3 1541 822.7 1513 771.2C1485 719.7 1450 668.3 1414.2 617C1378.3 565.7 1341.7 514.3 1338.8 463C1336 411.7 1367 360.3 1388.5 308.8C1410 257.3 1422 205.7 1420.5 154.2C1419 102.7 1404 51.3 1396.5 25.7L1389 0L1920 0L1920 25.7C1920 51.3 1920 102.7 1920 154.2C1920 205.7 1920 257.3 1920 308.8C1920 360.3 1920 411.7 1920 463C1920 514.3 1920 565.7 1920 617C1920 668.3 1920 719.7 1920 771.2C1920 822.7 1920 874.3 1920 925.8C1920 977.3 1920 1028.7 1920 1054.3L1920 1080Z" fill="#77d379"></path><path d="M1631 1080L1635.3 1054.3C1639.7 1028.7 1648.3 977.3 1639.7 925.8C1631 874.3 1605 822.7 1565.5 771.2C1526 719.7 1473 668.3 1462.8 617C1452.7 565.7 1485.3 514.3 1492.3 463C1499.3 411.7 1480.7 360.3 1476.7 308.8C1472.7 257.3 1483.3 205.7 1498.2 154.2C1513 102.7 1532 51.3 1541.5 25.7L1551 0L1920 0L1920 25.7C1920 51.3 1920 102.7 1920 154.2C1920 205.7 1920 257.3 1920 308.8C1920 360.3 1920 411.7 1920 463C1920 514.3 1920 565.7 1920 617C1920 668.3 1920 719.7 1920 771.2C1920 822.7 1920 874.3 1920 925.8C1920 977.3 1920 1028.7 1920 1054.3L1920 1080Z" fill="#59bd59"></path><path d="M1755 1080L1740.7 1054.3C1726.3 1028.7 1697.7 977.3 1677.2 925.8C1656.7 874.3 1644.3 822.7 1632.7 771.2C1621 719.7 1610 668.3 1605.5 617C1601 565.7 1603 514.3 1614.3 463C1625.7 411.7 1646.3 360.3 1647 308.8C1647.7 257.3 1628.3 205.7 1638 154.2C1647.7 102.7 1686.3 51.3 1705.7 25.7L1725 0L1920 0L1920 25.7C1920 51.3 1920 102.7 1920 154.2C1920 205.7 1920 257.3 1920 308.8C1920 360.3 1920 411.7 1920 463C1920 514.3 1920 565.7 1920 617C1920 668.3 1920 719.7 1920 771.2C1920 822.7 1920 874.3 1920 925.8C1920 977.3 1920 1028.7 1920 1054.3L1920 1080Z" fill="#39a739"></path><path d="M1821 1080L1803.8 1054.3C1786.7 1028.7 1752.3 977.3 1729.3 925.8C1706.3 874.3 1694.7 822.7 1720 771.2C1745.3 719.7 1807.7 668.3 1812 617C1816.3 565.7 1762.7 514.3 1752.3 463C1742 411.7 1775 360.3 1804 308.8C1833 257.3 1858 205.7 1868.5 154.2C1879 102.7 1875 51.3 1873 25.7L1871 0L1920 0L1920 25.7C1920 51.3 1920 102.7 1920 154.2C1920 205.7 1920 257.3 1920 308.8C1920 360.3 1920 411.7 1920 463C1920 514.3 1920 565.7 1920 617C1920 668.3 1920 719.7 1920 771.2C1920 822.7 1920 874.3 1920 925.8C1920 977.3 1920 1028.7 1920 1054.3L1920 1080Z" fill="#039210"></path></svg>